<svg xmlns="http://www.w3.org/2000/svg" xmlns:xlink="http://www.w3.org/1999/xlink" width="72.914" height="54.221" viewBox="0 0 72.914 54.221"><defs><style>.a{fill:url(#a);}.b{fill:none;stroke:#2fd0aa;stroke-linecap:round;stroke-width:2px;}</style><linearGradient id="a" x1="0.272" y1="0.184" x2="0.545" y2="0.694" gradientUnits="objectBoundingBox"><stop offset="0" stop-color="#2fd0aa"/><stop offset="1" stop-color="#fff" stop-opacity="0"/></linearGradient></defs><g transform="translate(-252.756 -56.076)"><path class="a" d="M254.1,108.949s9.033-4.687,9.073-10.692-.336-20.938,7.708-22.185,7.391,7.341,12.49,7.428,14.833-6.645,14.97-13.106,4.8-6.564,12.437-7.488a30.614,30.614,0,0,0,13.486-5.428v51.378Z"/><path class="b" d="M254.1,108.949s9.033-4.687,9.073-10.692-.336-20.938,7.708-22.185,7.391,7.341,12.49,7.428,14.833-6.645,14.97-13.106,4.8-6.564,12.437-7.488a30.614,30.614,0,0,0,13.486-5.428"/></g></svg>