<svg xmlns="http://www.w3.org/2000/svg" width="46.491" height="45.714" viewBox="0 0 46.491 45.714"><defs><style>.a{fill:#ffbcbc;}.b{fill:#ff0019;}.c{fill:#fff;}</style></defs><g transform="translate(0 -4.053)"><g transform="translate(0 4.053)"><g transform="translate(0 0)"><path class="a" d="M46.478,24.967a4,4,0,0,1-3.451,4.356,3.681,3.681,0,0,1-3.69-2.168l-1.883.166-1.422.686a1.074,1.074,0,0,0-.594.824,12.541,12.541,0,0,1-.717,2.77,1.069,1.069,0,0,0,.061.91l.507.906,1.408.945a2.533,2.533,0,1,1-1.6,2.714l-1.561-1.047-.982-.12a1.131,1.131,0,0,0-.919.31,12.714,12.714,0,0,1-2.783,2.011,1.118,1.118,0,0,0-.586.919l-.125,1.99.618,2.451a3.146,3.146,0,1,1-3.047.783l-.621-2.466-.958-1.541a1.4,1.4,0,0,0-1.2-.657h-.008a12.7,12.7,0,0,1-2.455-.24,1.4,1.4,0,0,0-1.293.406L17.91,41.212l-1.418,2.942a2.532,2.532,0,1,1-2.843-1.347l1.427-2.961.28-1.987a1.056,1.056,0,0,0-.377-.968A12.751,12.751,0,0,1,12.11,33.6a1.053,1.053,0,0,0-.893-.5l-1.984-.019-2.172.683A3.543,3.543,0,1,1,5.983,30.8l2.306-.725,1.684-1.2a.867.867,0,0,0,.359-.78q-.042-.508-.042-1.026a12.559,12.559,0,0,1,1.149-5.261.864.864,0,0,0-.009-.738l-.5-1.02L9.577,19.033a2.532,2.532,0,1,1,1.748-2.621l1.5,1.132,1.512.27a12.666,12.666,0,0,1,3.793-2.43l.355-2.157L18.037,11a3.631,3.631,0,0,1-2.692-2.712,3.548,3.548,0,0,1,2.939-4.163A3.751,3.751,0,0,1,22.7,6.891,3.444,3.444,0,0,1,21.146,10.5l.423,2.1,1.039,1.658a.371.371,0,0,0,.315.174h0a12.55,12.55,0,0,1,6.51,1.811.367.367,0,0,0,.343.019l1.627-.754,1.9-2.055a2.532,2.532,0,1,1,2.309,2.136l-1.9,2.055-.617,1.66a.367.367,0,0,0,.048.343,12.57,12.57,0,0,1,1.76,3.4,1.079,1.079,0,0,0,.726.7l1.545.433,2.007-.177a3.88,3.88,0,0,1,3.23-2.644,3.781,3.781,0,0,1,4.064,3.6Z" transform="translate(0 -4.053)"/><path class="b" d="M2.827.486a2.5,2.5,0,1,1-2.5,2.5A2.5,2.5,0,0,1,2.827.486Z" transform="translate(33 6)"/></g></g><g transform="translate(13.568 17.716)"><circle class="b" cx="9.357" cy="9.357" r="9.357"/></g><g transform="translate(4.517 4.734)"><circle class="b" cx="2.664" cy="2.664" r="2.664" transform="translate(0 0)"/><path class="b" d="M2.492.262a2.26,2.26,0,1,1-2.26,2.26A2.26,2.26,0,0,1,2.492.262Z" transform="translate(7.176 38.027)"/><circle class="b" cx="2.592" cy="2.592" r="2.592" transform="translate(31.657 38.086)"/><circle class="c" cx="2.417" cy="2.417" r="2.417" transform="translate(13.119 17.342)"/><circle class="c" cx="1.645" cy="1.645" r="1.645" transform="translate(15.831 25.621)"/><circle class="c" cx="1.381" cy="1.381" r="1.381" transform="translate(21.259 20.958)"/></g></g></svg>